<svg width="119" height="182" viewBox="0 0 119 182" fill="none" xmlns="http://www.w3.org/2000/svg">
<path d="M70.1 52.702L47.2001 66.402C43.9001 68.302 39.8 66.002 39.8 62.202V42.202C39.8 40.502 40.7001 38.902 42.2001 38.002L65.1 24.302C68.4 22.402 72.5 24.702 72.5 28.502V48.502C72.5 50.202 71.6 51.802 70.1 52.702Z" fill="url(#paint0_linear_22_12)"/>
<path d="M108.3 26.002L87.9 38.102C85 39.802 81.3 37.702 81.3 34.302V16.602C81.3 15.102 82.1 13.602 83.4 12.802L103.8 0.602014C106.7 -1.09799 110.4 1.00201 110.4 4.40201V22.102C110.4 23.802 109.6 25.202 108.3 26.002Z" fill="url(#paint1_linear_22_12)"/>
<path d="M81 124.702L4.9 79.702L3.9 79.002C3.7 78.902 3.5 78.602 3.3 78.402C2.6 77.402 2.8 76.102 3.5 75.102L3.6 74.902C3.6 74.902 0.1 77.302 0 81.302V132.802C0 136.202 1.8 139.402 4.7 141.102L71.1 180.302C77.5 184.102 85.6 179.502 85.6 172.002V132.902C85.7 129.602 83.9 126.402 81 124.702Z" fill="url(#paint2_linear_22_12)"/>
<path d="M84.2 51.602L94.3 45.602V40.602C94.3 40.202 94.3 39.802 94.2 39.402L88.2 43.002C85.2 44.802 81.3 42.602 81.3 39.102V31.702C80.8 31.902 80.2 32.102 79.7 32.502L76.5 34.402V53.302C76.5 55.302 75.5 57.102 73.8 58.002L48.1 73.102C44.4 75.302 39.8 72.602 39.8 68.402V55.902L10.6 72.902L10.4 73.102C9.69998 74.102 9.49998 75.402 10.2 76.402C10.4 76.602 10.6 76.902 10.8 77.002L11.8 77.702L59.3 105.802L89.4 88.002C91.4 86.802 92.8 85.002 93.6 82.902L90 85.102C86.1 87.402 81.3 84.602 81.3 80.102V56.502C81.3 54.502 82.4 52.602 84.2 51.602Z" fill="white"/>
<path d="M115.6 64.502L89.7 79.902C86 82.102 81.3 79.402 81.3 75.102V52.602C81.3 50.602 82.3 48.802 84 47.802L110 32.302C113.7 30.102 118.4 32.802 118.4 37.102V59.702C118.4 61.602 117.3 63.402 115.6 64.502Z" fill="url(#paint3_linear_22_12)"/>
<defs>
<linearGradient id="paint0_linear_22_12" x1="47.5415" y1="59.393" x2="87.3613" y2="-5.86709" gradientUnits="userSpaceOnUse">
<stop offset="0.1366" stop-color="#0193CC"/>
<stop offset="0.8761" stop-color="#01D0CC"/>
</linearGradient>
<linearGradient id="paint1_linear_22_12" x1="64.995" y1="70.0426" x2="104.815" y2="4.78262" gradientUnits="userSpaceOnUse">
<stop offset="0.1366" stop-color="#0193CC"/>
<stop offset="0.8761" stop-color="#01D0CC"/>
</linearGradient>
<linearGradient id="paint2_linear_22_12" x1="0.0236643" y1="81.3654" x2="79.1086" y2="176.56" gradientUnits="userSpaceOnUse">
<stop offset="0.1037" stop-color="#662D91"/>
<stop offset="0.834" stop-color="#FF00FF"/>
</linearGradient>
<linearGradient id="paint3_linear_22_12" x1="84.2052" y1="81.764" x2="124.025" y2="16.5043" gradientUnits="userSpaceOnUse">
<stop offset="0.1366" stop-color="#0193CC"/>
<stop offset="0.8761" stop-color="#01D0CC"/>
</linearGradient>
</defs>
</svg>
